# AST/ASF file generated using VICON BodyLanguage
# -----------------------------------------------
:version 1.10
:name VICON
:units
  mass 1.0
  length 0.45
  angle deg
:documentation
   .ast/.asf automatically generated from VICON data using
   VICON BodyBuilder and BodyLanguage model FoxedUp or BRILLIANT.MOD
:root
   order TX TY TZ RX RY RZ
   axis XYZ
   position 0 0 0  
   orientation 0 0 0 
:bonedata
  begin
     id 1 
     name lhipjoint
     direction 0.671379 -0.66392 0.329334 
     length 2.38647 
     axis 0 0 0  XYZ
  end
  begin
     id 2 
     name lfemur
     direction 0.34202 -0.939693 0  
     length 6.48179  
     axis 0 0 20  XYZ
    dof rx ry rz
    limits (-160.0 20.0)
           (-70.0 70.0)
           (-60.0 70.0)
  end
  begin
     id 3 
     name ltibia
     direction 0.34202 -0.939693 0   
     length 6.86524   
     axis 0 0 20   XYZ
    dof rx
    limits (-10.0 170.0)
  end
  begin
     id 4 
     name lfoot
     direction 0.204886 -0.562919 0.800715   
     length 1.73031   
     axis -90 7.62852e-016 20   XYZ
    dof rx rz
    limits (-45.0 90.0)
           (-70.0 20.0)
  end
  begin
     id 5 
     name ltoes
     direction 1.53548e-011 -4.21841e-011 1   
     length 0.828161   
     axis -90 7.62852e-016 20   XYZ
    dof rx
    limits (-90.0 20.0)
  end
  begin
     id 6 
     name rhipjoint
     direction -0.662732 -0.670855 0.332775   
     length 2.3618  
     axis 0 0 0  XYZ 
  end
  begin
     id 7 
     name rfemur
     direction -0.34202 -0.939693 0   
     length 6.3025   
     axis 0 0 -20   XYZ
    dof rx ry rz
    limits (-160.0 20.0)
           (-70.0 70.0)
           (-70.0 60.0)
  end
  begin
     id 8 
     name rtibia
     direction -0.34202 -0.939693 0   
     length 6.8732   
     axis 0 0 -20   XYZ
    dof rx
    limits (-10.0 170.0)
 end
 begin
     id 9 
     name rfoot
     direction -0.173856 -0.477665 0.861168   
     length 1.54784  
     axis -90 -7.62852e-016 -20   XYZ
    dof rx rz
    limits (-45.0 90.0)
           (-20.0 70.0)
  end
  begin
     id 10 
     name rtoes
     direction -1.53562e-011 -4.21802e-011 1   
     length 0.759618   
     axis -90 -7.62852e-016 -20   XYZ
    dof rx
    limits (-90.0 20.0)
  end
  begin
     id 11 
     name lowerback
     direction -0.0278357 0.999497 -0.0151789   
     length 1.97203   
     axis 0 0 0   XYZ
    dof rx ry rz
    limits (-20.0 45.0)
           (-30.0 30.0)
           (-30.0 30.0)
  end
  begin
     id 12 
     name upperback
     direction -0.00360622 0.997542 0.0699804   
     length 1.94709   
     axis 0 0 0   XYZ
    dof rx ry rz
    limits (-20.0 45.0)
           (-30.0 30.0)
           (-30.0 30.0)
  end
  begin
     id 13 
     name thorax
     direction 0.00907706 0.997048 0.0762461   
     length 1.95722   
     axis 0 0 0   XYZ
    dof rx ry rz
    limits (-20.0 45.0)
           (-30.0 30.0)
           (-30.0 30.0)
  end
  begin
     id 14 
     name lowerneck
     direction -0.0481835 0.99872 -0.0153927   
     length 1.63078   
     axis 0 0 0   XYZ
    dof rx ry rz
    limits (-20.0 45.0)
           (-30.0 30.0)
           (-30.0 30.0)
  end
  begin
     id 15 
     name upperneck
     direction 0.0859716 0.979226 -0.183644   
     length 1.62591   
     axis 0 0 0   XYZ
    dof rx ry rz
    limits (-20.0 45.0)
           (-30.0 30.0)
           (-30.0 30.0)
  end
  begin
     id 16
     name head
     direction 0.0324821 0.997629 -0.0606773  
     length 1.64811  
     axis 0 0 0   XYZ
    dof rx ry rz
    limits (-20.0 45.0)
           (-30.0 30.0)
           (-30.0 30.0)
  end
  begin
     id 17 
     name lclavicle
     direction 0.939609 0.311019 0.142835  
     length 3.70647  
     axis 0 0 0   XYZ
    dof ry rz
    limits (-20.0 10.0)
           (0.0 20.0)
  end
  begin
     id 18 
     name lhumerus
     direction 1 -4.48963e-011 -1.59838e-027   
     length 4.59207   
     axis 180 -30 -90   XYZ
    dof rx ry rz
    limits (-60.0 90.0)
           (-90.0 90.0)
           (-90.0 90.0)
  end
  begin
     id 19
     name lradius
     direction 1 -4.48957e-011 -1.3483e-026   
     length 2.98109   
     axis 180 -30 -90   XYZ
    dof rx
    limits (-10.0 170.0)
  end
  begin
     id 20
     name lwrist
     direction 1 -4.48954e-011 -3.11579e-026   
     length 1.49055   
     axis 2.00652e-014 90 90   XYZ
    dof ry
    limits (-180.0 0.0)
 end
  begin
     id 21 
     name lhand
     direction 1 -4.4911e-011 -6.23158e-026   
     length 0.480203   
     axis 3.97628e-014 90 90   XYZ
    dof rx rz
    limits (-90.0 90.0)
           (-45.0 45.0)
  end
  begin
     id 22 
     name lfingers
     direction 1 -4.48893e-011 -1.24632e-025   
     length 0.387152   
     axis 7.95256e-014 90 90   XYZ
    dof rx
    limits (0.0 90.0)
  end
  begin
     id 23
     name lthumb
     direction 0.707107 -6.35013e-011 0.707107   
     length 0.555875   
     axis -90 45 2.85299e-015   XYZ
    dof rx rz
    limits (-45.0 45.0)
           (-45.0 45.0)
  end
  begin
     id 24 
     name rclavicle
     direction -0.950396 0.30392 0.0661859   
     length 3.70894  
     axis 0 0 0   XYZ 
    dof ry rz
    limits (-10.0 20.0)
           (-20.0 0.0)
  end
  begin
     id 25 
     name rhumerus
     direction -1 -4.48957e-011 -2.96677e-027  
     length 4.76508   
     axis 180 30 90   XYZ
    dof rx ry rz
    limits (-90.0 60.0)
           (-90.0 90.0)
           (-90.0 90.0)
  end
  begin
     id 26 
     name rradius
     direction -1 -4.48974e-011 -1.44501e-026   
     length 2.78902   
     axis 180 30 90   XYZ
    dof rx
    limits (-10.0 170.0)
  end
  begin
     id 27 
     name rwrist
     direction -1 -4.48978e-011 -3.11579e-026   
     length 1.39451   
     axis 2.00652e-014 -90 -90   XYZ
    dof ry
    limits (-180.0 0.0)
  end
  begin
     id 28
     name rhand
     direction -1 -4.48956e-011 -6.23158e-026   
     length 0.721303   
     axis 3.97628e-014 -90 -90   XYZ
    dof rx rz
    limits (-90.0 90.0)
           (-45.0 45.0)
  end
  begin
     id 29
     name rfingers
     direction -1 -4.4899e-011 -1.24632e-025   
     length 0.581533   
     axis 7.95256e-014 -90 -90   XYZ
    dof rx
    limits (0.0 90.0)
  end
  begin
     id 30
     name rthumb
     direction -0.707107 -6.34911e-011 0.707107   
     length 0.834968   
     axis -90 -45 -2.85299e-015   XYZ
    dof rx rz
    limits (-45.0 45.0)
           (-45.0 45.0)
  end
:hierarchy
  begin
    root lhipjoint rhipjoint lowerback
    lhipjoint lfemur
    lfemur ltibia
    ltibia lfoot
    lfoot ltoes
    rhipjoint rfemur
    rfemur rtibia
    rtibia rfoot
    rfoot rtoes
    lowerback upperback
    upperback thorax
    thorax lowerneck lclavicle rclavicle
    lowerneck upperneck
    upperneck head
    lclavicle lhumerus
    lhumerus lradius
    lradius lwrist
    lwrist lhand lthumb
    lhand lfingers
    rclavicle rhumerus
    rhumerus rradius
    rradius rwrist
    rwrist rhand rthumb
    rhand rfingers
  end

#!OML:ASF I:\salsa\salsa 7_09\Patient 1\Session 1\dancerfemale.ASF
:FULLY-SPECIFIED
:DEGREES
394
root 11.649 15.6449 -1.03212 -213.266 -72.4689 214.825
lowerback 7.9733 2.38901 1.82073
upperback -5.50698 3.75948 5.30808
thorax -10.6699 1.83756 4.07969
lowerneck -2.76949 -3.12642 -5.65503
upperneck 6.3925 -4.30305 5.41031
head 2.82675 -2.14039 2.62664
rclavicle -3.31473e-014 -2.90226e-014
rhumerus -40.1568 5.02205 -88.6471
rradius 60.9094
rwrist 7.76247
rhand -6.53246 54.6897
rfingers 7.12502
rthumb 19.3204 25.6295
lclavicle -3.31473e-014 -2.90226e-014
lhumerus -3.18044 0.414394 68.0603
lradius 97.4099
lwrist 22.693
lhand 20.4542 42.6118
lfingers 7.12502
lthumb 44.958 66.1279
rfemur -6.15293 -1.7361 35.2988
rtibia 25.157
rfoot -19.221 16.0206
rtoes 5.10609
lfemur -42.722 11.3408 -9.76464
ltibia 55.3817
lfoot -15.5691 8.93799
ltoes -28.9813
395
root 11.4399 15.6804 -1.05306 -212.23 -72.638 213.716
lowerback 7.90308 2.73409 0.80841
upperback -5.73461 4.12677 5.55018
thorax -11.0112 2.10521 4.86035
lowerneck -2.43181 -3.45304 -5.79325
upperneck 6.21858 -4.72895 5.17783
head 2.72812 -2.36583 2.55945
rclavicle -6.11263e-015 -2.66371e-014
rhumerus -40.0814 3.33095 -88.0584
rradius 59.2797
rwrist 8.13543
rhand -6.27543 55.4835
rfingers 7.12502
rthumb 19.5676 26.4482
lclavicle -6.11263e-015 -2.66371e-014
lhumerus -3.27147 0.000258929 68.6347
lradius 96.7854
lwrist 22.0056
lhand 22.2462 41.721
lfingers 7.12502
lthumb 46.6216 64.5521
rfemur -4.41191 -2.57303 34.6159
rtibia 23.3641
rfoot -18.2891 16.7757
rtoes 5.47388
lfemur -42.2674 10.4065 -9.68196
ltibia 51.708
lfoot -13.7865 8.16391
ltoes -30.3262
396
root 11.2229 15.7233 -1.07367 -211.81 -72.3736 212.991
lowerback 7.8645 3.1718 0.20382
upperback -5.8295 4.66755 5.83817
thorax -11.2316 2.42846 5.4282
lowerneck -2.44363 -3.81716 -5.84847
upperneck 6.38803 -5.20182 4.8838
head 2.80763 -2.61109 2.45133
rclavicle -4.7112e-014 5.56597e-015
rhumerus -40.0437 2.01018 -87.2156
rradius 57.6089
rwrist 8.44358
rhand -6.29313 56.2932
rfingers 7.12502
rthumb 19.5506 27.2562
lclavicle -4.7112e-014 5.56597e-015
lhumerus -3.1094 -0.53379 69.1876
lradius 96.383
lwrist 21.2934
lhand 23.951 41.4121
lfingers 7.12502
lthumb 48.1963 63.5328
rfemur -2.39141 -3.34455 34.2438
rtibia 21.6619
rfoot -17.3966 17.6268
rtoes 5.3102
lfemur -41.2931 9.68307 -9.20453
ltibia 48.9466
lfoot -11.4709 7.55479
ltoes -33.5965
397
root 10.9967 15.7746 -1.08592 -211.395 -72.0233 212.297
lowerback 7.66864 3.60469 -0.120661
upperback -5.93038 5.22415 6.05747
thorax -11.3485 2.73409 5.76344
lowerneck -2.45434 -4.18061 -5.91242
upperneck 6.58551 -5.68009 4.66488
head 2.89931 -2.85808 2.36918
rclavicle -5.56597e-015 -4.05521e-014
rhumerus -40.0939 1.13853 -86.1912
rradius 55.86
rwrist 8.75808
rhand -6.64971 56.9878
rfingers 7.12502
rthumb 19.2077 27.9163
lclavicle -5.56597e-015 -4.05521e-014
lhumerus -2.88066 -1.26046 69.5726
lradius 96.0208
lwrist 20.7658
lhand 25.3414 41.5049
lfingers 7.12502
lthumb 49.4744 62.9993
rfemur -0.56762 -3.95644 33.8722
rtibia 20.3611
rfoot -16.6276 18.336
rtoes 4.15669
lfemur -40.3091 8.29581 -8.55653
ltibia 47.0176
lfoot -9.03704 7.79666
ltoes -35.4892
398
root 10.7635 15.7887 -1.08121 -210.44 -71.8238 211.175
lowerback 7.3066 3.9694 -0.326471
upperback -6.10258 5.68731 6.10013
thorax -11.4092 2.97825 5.86037
lowerneck -2.20326 -4.51496 -6.07827
upperneck 6.60808 -6.14193 4.69292
head 2.89676 -3.09575 2.3941
rclavicle -2.27608e-014 1.59028e-015
rhumerus -40.2875 0.229701 -84.9849
rradius 54.3081
rwrist 9.3501
rhand -6.67545 57.4314
rfingers 7.12502
rthumb 19.1829 28.3575
lclavicle -2.27608e-014 1.59028e-015
lhumerus -2.79776 -2.10449 69.6548
lradius 95.8162
lwrist 20.4774
lhand 26.3948 41.5918
lfingers 7.12502
lthumb 50.4386 62.5812
rfemur 0.843243 -3.89668 33.3625
rtibia 19.6679
rfoot -16.2472 18.1558
rtoes 1.49519
lfemur -39.489 7.26369 -8.58157
ltibia 45.9937
lfoot -5.91826 9.16136
ltoes -35.099
399
root 10.5233 15.7915 -1.06438 -209.079 -71.7586 209.741
lowerback 6.63189 4.3178 -0.58592
upperback -6.24284 6.10687 6.09079
thorax -11.2419 3.20254 5.95655
lowerneck -1.92149 -4.85013 -6.38402
upperneck 6.57596 -6.60796 4.84074
head 2.88378 -3.33585 2.48619
rclavicle 6.61953e-014 1.03368e-013
rhumerus -40.555 -0.757567 -83.3773
rradius 52.9836
rwrist 10.155
rhand -6.10265 57.7064
rfingers 7.12502
rthumb 19.7337 28.6881
lclavicle 6.61953e-014 1.03368e-013
lhumerus -2.754 -2.88561 69.8586
lradius 95.6473
lwrist 20.2881
lhand 27.0244 41.419
lfingers 7.12502
lthumb 51.013 62.0931
rfemur 1.65509 -3.79165 32.6665
rtibia 19.8985
rfoot -16.2161 17.8822
rtoes -1.31643
lfemur -38.4807 6.38761 -9.1221
ltibia 45.4639
lfoot -3.25907 10.1403
ltoes -28.2116
400
root 10.278 15.7895 -1.02522 -207.935 -71.9534 208.476
lowerback 6.046 4.52791 -0.461756
upperback -6.41518 6.37306 5.91462
thorax -11.0756 3.31283 5.67826
lowerneck -1.63926 -5.12945 -6.7964
upperneck 6.60885 -7.01365 5.16961
head 2.90605 -3.54525 2.66248
rclavicle -9.93923e-015 3.1408e-014
rhumerus -40.9987 -1.58382 -81.6329
rradius 51.8716
rwrist 11.0302
rhand -5.24231 57.8399
rfingers 7.12502
rthumb 20.5606 28.9087
lclavicle -9.93923e-015 3.1408e-014
lhumerus -2.77735 -3.5335 70.2702
lradius 95.3825
lwrist 19.7439
lhand 27.7799 40.9533
lfingers 7.12502
lthumb 51.7003 61.2352
rfemur 1.92525 -2.88587 32.02
rtibia 21.184
rfoot -16.5239 16.549
rtoes -4.5168
lfemur -37.4905 5.48664 -10.048
ltibia 45.2342
lfoot -2.48465 10.4434
ltoes -22.0341
